<?xml version="1.0" encoding="UTF-8"?>
<svg xmlns="http://www.w3.org/2000/svg" xmlns:xlink="http://www.w3.org/1999/xlink" width="166.66pt" height="283.17pt" viewBox="0 0 166.66 283.17" version="1.1">
<g id="surface1">
<path style=" stroke:none;fill-rule:nonzero;fill:rgb(50.999451%,7.499695%,10.998535%);fill-opacity:1;" d="M 80.03125 43.085938 C 17.03125 65.421875 47.851563 125.882813 61.324219 137.003906 C 68.445313 142.882813 74.324219 190.796875 75.574219 194.753906 C 76.074219 200.046875 69.371094 227.21875 65.988281 230.835938 C 54.8125 222.390625 37.15625 186.003906 37.335938 174.949219 C 53.824219 190.003906 64.09375 179.753906 53 152.785156 C 41.574219 125.003906 30.074219 136.753906 25.667969 145.949219 C 13.824219 140.753906 1.167969 113.449219 0 101.285156 C 7.667969 106.449219 14.667969 116.949219 31 115.285156 C 30.832031 84.785156 2.332031 83.949219 2.332031 81.617188 C 2.332031 74.753906 26.585938 45.867188 26.585938 45.867188 C 26.65625 -6.828125 28.988281 30.171875 48.335938 27.285156 C 54.835938 19.242188 80.074219 0.00390625 80.074219 0.00390625 C 80.074219 0.00390625 107.824219 19.128906 114.324219 27.171875 C 131.824219 26.503906 136.15625 -0.328125 136.074219 45.753906 C 136.074219 45.753906 160.324219 75.503906 160.324219 79.503906 C 160.324219 81.835938 132.824219 87.003906 132.65625 117.503906 C 148.988281 119.171875 158.988281 105.335938 166.65625 100.171875 C 165.488281 112.335938 146.65625 147.835938 140.824219 152.503906 C 132.824219 135.171875 122.324219 122.671875 107.988281 162.171875 C 91.074219 208.785156 113.15625 212.335938 120.324219 212.003906 C 95.824219 236.753906 101.15625 274.671875 92.488281 283.171875 C 89.324219 268.421875 88.988281 148.171875 101.324219 136.503906 C 114.011719 124.5 143.03125 65.421875 80.03125 43.085938 "/>
<path style=" stroke:none;fill-rule:nonzero;fill:rgb(50.999451%,7.499695%,10.998535%);fill-opacity:1;" d="M 80.601563 131.003906 C 80.601563 131.003906 78.824219 119.671875 70.824219 106.335938 C 64.566406 95.90625 60.226563 94.515625 62.097656 91.753906 C 69.382813 81.003906 70.707031 83.101563 79.457031 71.085938 L 81.746094 70.003906 C 81.746094 70.003906 97.007813 84.085938 99.753906 91.585938 C 100.925781 94.773438 95.480469 101.753906 91.511719 108.921875 C 87.09375 116.898438 85.613281 124.648438 82.1875 129.425781 "/>
</g>
</svg>
