<svg height="511pt" viewBox="0 1 511 511.99899" width="511pt" xmlns="http://www.w3.org/2000/svg"><path d="m282.804688 34.074219c0 9.011719-4.5 16.960937-11.363282 21.746093-4.289062 2.996094-9.515625 4.75-15.136718 4.75-14.632813 0-26.5-11.867187-26.5-26.496093 0-14.644531 11.867187-26.511719 26.5-26.511719 5.621093 0 10.847656 1.757812 15.136718 4.753906 6.863282 4.785156 11.363282 12.746094 11.363282 21.757813zm0 0" fill="#7c3f2c"/><path d="m282.804688 34.074219c0 9.011719-4.5 16.960937-11.363282 21.746093-6.863281-4.785156-11.363281-12.734374-11.363281-21.746093s4.5-16.972657 11.363281-21.757813c6.863282 4.785156 11.363282 12.746094 11.363282 21.757813zm0 0" fill="#954c35"/><path d="m409.027344 503.925781h-305.441406c-52.476563 0-95.015626-42.535156-95.015626-95.011719v-181.65625c0-52.476562 42.539063-95.015624 95.015626-95.015624h305.441406c52.472656 0 95.011718 42.539062 95.011718 95.015624v181.65625c0 52.476563-42.539062 95.011719-95.011718 95.011719zm0 0" fill="#d63030"/><path d="m471.65625 230.835938v174.492187c0 35.1875-28.527344 63.714844-63.714844 63.714844h-303.273437c-35.1875 0-63.714844-28.527344-63.714844-63.714844v-174.492187c0-35.1875 28.527344-63.714844 63.714844-63.714844h303.273437c35.1875 0 63.714844 28.527344 63.714844 63.714844zm0 0" fill="#fb5858"/><path d="m471.65625 230.835938v174.492187c0 35.1875-28.527344 63.714844-63.714844 63.714844h-273c-35.1875 0-63.714844-28.527344-63.714844-63.714844v-174.492187c0-35.1875 28.527344-63.714844 63.714844-63.714844h273c35.1875 0 63.714844 28.527344 63.714844 63.714844zm0 0" fill="#fc7979"/><g fill="#af2727"><path d="m168.570312 259.519531h-30.632812v41.714844c0 4.921875-6.003906 7.386719-12.003906 7.386719-6.003906 0-12.007813-2.464844-12.007813-7.386719v-97.898437c0-5.078126 6.003907-7.230469 12.007813-7.230469 6 0 12.003906 2.152343 12.003906 7.230469v37.710937h30.632812v-37.710937c0-5.078126 6-7.230469 12.003907-7.230469 6.003906 0 12.007812 2.152343 12.007812 7.230469v97.898437c0 4.921875-6.003906 7.386719-12.007812 7.386719-6.003907 0-12.003907-2.464844-12.003907-7.386719zm0 0"/><path d="m221.824219 273.21875v-40.789062c0-26.472657 16.46875-36.324219 37.710937-36.324219 21.242188 0 37.863282 9.851562 37.863282 36.324219v40.789062c0 26.476562-16.621094 36.328125-37.863282 36.328125-21.242187 0-37.710937-9.851563-37.710937-36.328125zm51.566406-40.789062c0-10.621094-5.234375-15.390626-13.855469-15.390626-8.617187 0-13.695312 4.769532-13.695312 15.390626v40.789062c0 10.621094 5.078125 15.394531 13.695312 15.394531 8.621094 0 13.855469-4.773437 13.855469-15.394531zm0 0"/><path d="m391.605469 196.105469c5.078125 0 7.230469 5.539062 7.230469 10.621093 0 5.847657-2.617188 10.925782-7.230469 10.925782h-21.242188v83.582031c0 4.921875-6.003906 7.386719-12.007812 7.386719-6.003907 0-12.003907-2.464844-12.003907-7.386719v-83.582031h-21.242187c-4.617187 0-7.234375-5.078125-7.234375-10.925782 0-5.082031 2.152344-10.621093 7.234375-10.621093zm0 0"/><path d="m108.003906 325.53125c21.238282 0 37.863282 9.851562 37.863282 36.324219v39.867187c0 26.472656-16.625 36.324219-37.863282 36.324219h-27.246094c-6.3125 0-10.46875-3.386719-10.46875-7.234375v-98.046875c0-3.847656 4.15625-7.234375 10.46875-7.234375zm-13.699218 20.933594v70.648437h13.695312c8.621094 0 13.855469-4.925781 13.855469-15.390625v-39.867187c0-10.46875-5.234375-15.390625-13.855469-15.390625zm0 0"/><path d="m198.972656 372.476562h23.085938c4.617187 0 7.234375 4.464844 7.234375 9.390626 0 4.15625-2.152344 9.082031-7.234375 9.082031h-23.085938v26.164062h41.25c4.617188 0 7.234375 4.925781 7.234375 10.621094 0 4.925781-2.15625 10.3125-7.234375 10.3125h-54.796875c-5.234375 0-10.46875-2.460937-10.46875-7.386719v-97.742187c0-4.921875 5.234375-7.386719 10.46875-7.386719h54.796875c5.078125 0 7.234375 5.386719 7.234375 10.3125 0 5.695312-2.617187 10.621094-7.234375 10.621094h-41.25zm0 0"/><path d="m264.078125 428.195312c0-.460937.15625-1.078124.308594-1.691406l28.628906-93.894531c1.695313-5.386719 8.621094-8.003906 15.699219-8.003906 7.082031 0 14.007812 2.617187 15.703125 8.003906l28.78125 93.894531c.15625.613282.308593 1.230469.308593 1.691406 0 5.695313-8.773437 9.851563-15.390624 9.851563-3.847657 0-6.929688-1.230469-7.851563-4.460937l-5.234375-19.242188h-32.476562l-5.234376 19.242188c-.921874 3.230468-4 4.460937-7.847656 4.460937-6.621094 0-15.394531-4.15625-15.394531-9.851563zm55.875-32.324218-11.238281-41.25-11.234375 41.25zm0 0"/><path d="m386.753906 438.046875c-5.234375 0-10.46875-2.460937-10.46875-7.386719v-97.894531c0-5.082031 6.003906-7.234375 12.007813-7.234375 6.003906 0 12.007812 2.152344 12.007812 7.234375v84.347656h35.089844c4.621094 0 6.929687 5.234375 6.929687 10.464844 0 5.234375-2.308593 10.46875-6.929687 10.46875zm0 0"/></g><path d="m409.027344 124.171875h-11.765625l-109.996094-75.910156c10.332031-22.449219-6.140625-48.261719-30.960937-48.261719-24.8125 0-41.292969 25.808594-30.960938 48.261719l-109.996094 75.910156h-11.761718c-56.84375 0-103.085938 46.242187-103.085938 103.082031v181.660156c0 56.839844 46.242188 103.085938 103.085938 103.085938h305.441406c56.839844 0 103.082031-46.246094 103.082031-103.085938v-181.65625c0-56.84375-46.242187-103.085937-103.082031-103.085937zm-152.722656-109.035156c10.441406 0 18.933593 8.492187 18.933593 18.933593 0 10.4375-8.492187 18.933594-18.933593 18.933594-10.441407 0-18.933594-8.496094-18.933594-18.933594 0-10.441406 8.496094-18.933593 18.933594-18.933593zm239.660156 393.777343c0 47.941407-39 86.941407-86.9375 86.941407h-305.441406c-47.9375 0-86.941407-39-86.941407-86.941407v-181.65625c0-47.941406 39-86.941406 86.941407-86.941406h72.019531c4.457031 0 8.074219-3.613281 8.074219-8.074218 0-4.457032-3.617188-8.070313-8.074219-8.070313h-33.609375l92.578125-63.886719c12.621093 10.480469 30.855469 10.46875 43.464843 0l92.574219 63.886719h-164.734375c-4.457031 0-8.074218 3.613281-8.074218 8.070313 0 4.460937 3.617187 8.074218 8.074218 8.074218h203.148438c47.9375 0 86.9375 39 86.9375 86.941406zm0 0"/><path d="m465.136719 201.589844c-4.191407 1.515625-6.363281 6.140625-4.847657 10.335937 5.773438 15.960938 2.222657 11.925781 3.296876 193.40625 0 30.679688-24.957032 55.640625-55.640626 55.640625-314.625-1.472656-306.769531 3.367188-325.066406-4.425781-4.105468-1.746094-8.84375.164063-10.589844 4.265625-1.75 4.101562.160157 8.84375 4.261719 10.589844 8.90625 3.792968 18.363281 5.714844 28.113281 5.714844h303.28125c39.585938 0 71.785157-32.203126 71.785157-71.785157-1.332031-177.96875 3.164062-178.375-4.253907-198.898437-1.515624-4.191406-6.148437-6.363282-10.339843-4.84375zm0 0"/><path d="m49.023438 405.332031v-174.492187c0-30.679688 24.960937-55.640625 55.640624-55.640625h303.28125c14.109376 0 27.566407 5.289062 37.890626 14.890625 3.261718 3.035156 8.367187 2.851562 11.410156-.410156 3.035156-3.265626 2.851562-8.371094-.414063-11.410157-13.320312-12.390625-30.679687-19.214843-48.882812-19.214843h-303.285157c-39.582031 0-71.785156 32.203124-71.785156 71.785156v174.492187c0 16.746094 5.886719 33.042969 16.582032 45.894531 2.847656 3.421876 7.941406 3.894532 11.371093 1.039063 3.425781-2.851563 3.890625-7.941406 1.039063-11.367187-8.28125-9.957032-12.847656-22.589844-12.847656-35.566407zm0 0"/><path d="m200.148438 301.234375v-97.894531c0-19.847656-39.148438-19.855469-39.148438 0v30.140625h-15.492188v-30.140625c0-19.847656-39.148437-19.855469-39.148437 0v97.894531c0 19.960937 39.148437 19.984375 39.148437 0v-34.144531h15.492188v34.144531c0 19.957031 39.148438 19.984375 39.148438 0zm-62.210938-49.28125c-4.179688 0-7.566406 3.386719-7.566406 7.566406v40.714844c-2.292969 1.09375-6.585938 1.089844-8.875 0v-95.859375c2.28125-.9375 6.589844-.9375 8.875 0v36.675781c0 4.179688 3.386718 7.566407 7.566406 7.566407h30.632812c4.179688 0 7.566407-3.386719 7.566407-7.566407v-36.675781c2.285156-.9375 6.589843-.9375 8.875 0v95.859375c-2.292969 1.09375-6.582031 1.089844-8.875 0v-40.714844c0-4.179687-3.386719-7.566406-7.566407-7.566406zm0 0"/><path d="m280.957031 273.21875v-40.789062c0-14.160157-8.207031-22.960938-21.421875-22.960938-13.316406 0-21.265625 8.585938-21.265625 22.960938v40.789062c0 14.378906 7.949219 22.960938 21.265625 22.960938 13.214844 0 21.421875-8.796876 21.421875-22.960938zm-27.550781 0v-40.789062c0-7.824219 3.113281-7.824219 6.128906-7.824219 3.679688 0 6.285156.5625 6.285156 7.824219v40.789062c0 7.261719-2.605468 7.824219-6.285156 7.824219-3.011718 0-6.128906 0-6.128906-7.824219zm0 0"/><path d="m304.96875 273.21875v-40.789062c0-27.894532-16.558594-43.894532-45.433594-43.894532-28.773437 0-45.277344 16-45.277344 43.894532v40.789062c0 27.894531 16.503907 43.894531 45.277344 43.894531 28.875 0 45.433594-16 45.433594-43.894531zm-75.574219 0v-40.789062c0-19.351563 9.859375-28.757813 30.140625-28.757813 20.386719 0 30.296875 9.40625 30.296875 28.757813v40.789062c0 19.351562-9.910156 28.757812-30.296875 28.757812-20.28125 0-30.140625-9.40625-30.140625-28.757812zm0 0"/><path d="m377.929688 301.234375v-76.011719h13.675781c19.472656 0 20.019531-36.6875 0-36.6875h-66.496094c-20.015625 0-19.484375 36.6875 0 36.6875h13.671875v76.011719c0 19.957031 39.148438 19.984375 39.148438 0zm-15.136719-83.582031v82.582031c-2.292969 1.089844-6.582031 1.089844-8.875 0v-82.582031c0-4.179688-3.386719-7.566406-7.566407-7.566406h-20.316406c-.746094-1.675782-.800781-4.632813-.082031-6.414063h64.804687c.722657 1.777344.667969 4.734375-.078124 6.414063h-20.316407c-4.183593 0-7.570312 3.386718-7.570312 7.566406zm0 0"/><path d="m108.003906 445.617188c28.871094 0 45.433594-16 45.433594-43.894532v-39.867187c0-27.894531-16.5625-43.894531-45.433594-43.894531h-27.246094c-10.28125 0-18.035156 6.367187-18.035156 14.804687v98.046875c0 8.4375 7.753906 14.804688 18.035156 14.804688zm-30.144531-111.949219c.480469-.25 1.425781-.570313 2.898437-.570313h27.246094c20.386719 0 30.296875 9.40625 30.296875 28.757813v39.867187c0 19.351563-9.910156 28.757813-30.296875 28.757813h-27.246094c-1.472656 0-2.417968-.320313-2.898437-.570313zm0 0"/><path d="m94.304688 424.683594h13.695312c13.214844 0 21.421875-8.800782 21.421875-22.960938v-39.867187c0-14.164063-8.207031-22.960938-21.421875-22.960938h-13.695312c-4.179688 0-7.570313 3.386719-7.570313 7.570313v70.648437c0 4.179688 3.390625 7.570313 7.570313 7.570313zm7.566406-70.652344c7.550781.359375 12.414062-2.015625 12.414062 7.824219v39.867187c0 9.878906-4.96875 7.46875-12.414062 7.824219zm0 0"/><path d="m240.222656 354.03125c19.542969 0 19.925782-36.070312 0-36.070312h-54.796875c-10.449219 0-18.035156 6.289062-18.035156 14.957031v97.742187c0 8.664063 7.585937 14.953125 18.035156 14.953125h54.796875c19.921875 0 19.550782-36.066406 0-36.066406h-33.683594v-11.03125h15.519532c8.441406 0 14.804687-7.160156 14.804687-16.652344 0-9.664062-6.363281-16.957031-14.804687-16.957031h-15.519532v-10.875zm-41.25 26.011719h22.441406c.363282.894531.441407 2.285156.058594 3.335937h-22.5c-4.179687 0-7.570312 3.386719-7.570312 7.566406v26.167969c0 4.183594 3.390625 7.570313 7.570312 7.570313h40.382813c.664062 1.511718.730469 4.15625.078125 5.796875h-54.007813c-1.347656 0-2.359375-.292969-2.898437-.542969v-96.300781c2.308594-1.0625 2.492187-.257813 56.90625-.539063.652344 1.644532.585937 4.289063-.078125 5.796875h-40.382813c-4.179687 0-7.570312 3.390625-7.570312 7.570313v26.011718c0 4.179688 3.390625 7.566407 7.570312 7.566407zm0 0"/><path d="m297.480469 403.441406h22.472656c4.976563 0 8.617187-4.734375 7.300781-9.558594l-11.234375-41.25c-.898437-3.296874-3.890625-5.578124-7.304687-5.578124-3.410156 0-6.402344 2.285156-7.300782 5.578124l-11.238281 41.25c-1.308593 4.804688 2.3125 9.558594 7.304688 9.558594zm11.234375-20.023437 1.332031 4.886719h-2.664063zm0 0"/><path d="m294.625 435.570312 3.714844-13.660156h20.90625l3.742187 13.753906c1.78125 6.230469 7.4375 9.953126 15.128907 9.953126 12.84375 0 25.992187-9.214844 22.320312-21.332032l-28.800781-93.945312c-2.578125-8.203125-11.359375-13.300782-22.921875-13.300782-11.558594 0-20.339844 5.097657-22.9375 13.363282l-28.628906 93.894531c-5.945313 19.546875 31.980468 30.5 37.476562 11.273437zm5.613281-100.691406c.304688-.972656 3.398438-2.703125 8.476563-2.703125 5.082031 0 8.175781 1.730469 8.464844 2.652344l28.527343 93.050781c-1.605469 1.425782-5.523437 2.867188-8.453125 2.558594l-4.917968-18.082031c-.898438-3.292969-3.890626-5.582031-7.304688-5.582031h-32.476562c-3.414063 0-6.40625 2.289062-7.300782 5.582031l-4.917968 18.082031c-.226563.023438-.511719.039062-.863282.039062-3.09375 0-6.378906-1.519531-7.589844-2.601562zm0 0"/><path d="m386.753906 445.617188h48.640625c19.292969 0 19.359375-36.070313 0-36.070313h-27.527343v-76.78125c0-19.84375-39.148438-19.855469-39.148438 0v97.894531c0 8.664063 7.585938 14.957032 18.035156 14.957032zm-2.898437-111.816407c2.28125-.9375 6.601562-.9375 8.875 0v83.3125c0 4.183594 3.390625 7.570313 7.570312 7.570313h33.980469c.628906 1.644531.628906 4.148437 0 5.796875-47.441406-.277344-48.113281.519531-50.425781-.539063zm0 0"/></svg>